<svg width="36" height="36" viewBox="0 0 36 36" fill="none" xmlns="http://www.w3.org/2000/svg">
<path fill-rule="evenodd" clip-rule="evenodd" d="M17.702 36C27.4785 36 35.404 27.9411 35.404 18C35.404 8.05888 27.4785 0 17.702 0C7.92545 0 0 8.05888 0 18C0 27.9411 7.92545 36 17.702 36ZM17.7017 33.8991C26.5382 33.8991 33.7017 26.7808 33.7017 18C33.7017 9.2192 26.5382 2.10095 17.7017 2.10095C8.8651 2.10095 1.70166 9.2192 1.70166 18C1.70166 26.7808 8.8651 33.8991 17.7017 33.8991Z" fill="#DDDBCC"/>
<path fill-rule="evenodd" clip-rule="evenodd" d="M16.7495 30.0341H19.606L25.4534 19.6785C25.8252 18.2539 26.3457 14.7333 25.4534 12.047C24.5612 9.36073 22.7725 7.77243 20.9921 7.08655C18.8417 6.63599 17.4865 6.53042 15.5994 7.08655C11.1996 8.38316 9.92903 12.1277 9.75929 12.7084C9.41313 14.2726 9.07661 17.9852 10.4998 20.3222C11.9229 22.6593 15.2593 27.7706 16.7495 30.0341ZM17.7019 18.371C19.2475 18.371 20.5004 17.126 20.5004 15.5901C20.5004 14.0543 19.2475 12.8092 17.7019 12.8092C16.1563 12.8092 14.9033 14.0543 14.9033 15.5901C14.9033 17.126 16.1563 18.371 17.7019 18.371Z" fill="#DDDBCC"/>
</svg>
