<svg width="79" height="29" viewBox="0 0 79 29" fill="none" xmlns="http://www.w3.org/2000/svg">
<path d="M41.5179 7.97865C39.0208 4.85882 35.6805 6.14902 34.4608 7.97865C33.4267 9.52884 29.7589 8.88529 30.3774 6.44079C31.621 1.52561 34.7843 0 38.7391 0C41.903 0 44.3136 3.23921 45.1234 4.85882C46.5924 6.89277 42.8826 9.68353 41.5179 7.97865Z" fill="#DDDBCC"/>
<path d="M26.3646 17.797C23.8674 14.6772 20.5272 15.9674 19.3075 17.797C18.2734 19.3472 14.6056 18.7037 15.2241 16.2591C16.4677 11.344 19.6309 9.81836 23.5858 9.81836C26.7497 9.81836 29.1603 13.0576 29.9701 14.6772C31.439 16.7111 27.7292 19.5019 26.3646 17.797Z" fill="#DDDBCC"/>
<path d="M41.5189 17.797C39.0217 14.6772 35.6815 15.9674 34.4618 17.797C33.4277 19.3472 29.7599 18.7037 30.3784 16.2591C31.622 11.344 34.7852 9.81836 38.7401 9.81836C41.904 9.81836 44.3146 13.0576 45.1244 14.6772C46.5933 16.7111 42.8835 19.5019 41.5189 17.797Z" fill="#DDDBCC"/>
<path d="M11.2103 27.6154C8.71314 24.4955 5.37292 25.7857 4.15319 27.6154C3.11907 29.1656 -0.548691 28.522 0.0697887 26.0775C1.31337 21.1623 4.47664 19.6367 8.4315 19.6367C11.5954 19.6367 14.006 22.8759 14.8158 24.4955C16.2847 26.5295 12.5749 29.3202 11.2103 27.6154Z" fill="#DDDBCC"/>
<path d="M26.3646 27.6154C23.8674 24.4955 20.5272 25.7857 19.3075 27.6154C18.2734 29.1656 14.6056 28.522 15.2241 26.0775C16.4677 21.1623 19.6309 19.6367 23.5858 19.6367C26.7497 19.6367 29.1603 22.8759 29.9701 24.4955C31.439 26.5295 27.7292 29.3202 26.3646 27.6154Z" fill="#DDDBCC"/>
<path d="M41.5179 27.6154C39.0208 24.4955 35.6805 25.7857 34.4608 27.6154C33.4267 29.1656 29.7589 28.522 30.3774 26.0775C31.621 21.1623 34.7843 19.6367 38.7391 19.6367C41.903 19.6367 44.3136 22.8759 45.1234 24.4955C46.5924 26.5295 42.8826 29.3202 41.5179 27.6154Z" fill="#DDDBCC"/>
<path d="M51.9187 15.4616C52.4711 15.9887 52.1489 16.5086 51.9187 16.7027C52.3416 17.2101 53.5107 17.9205 54.8046 16.7027C54.3896 14.9234 56.1563 11.8729 57.0916 10.5701C56.084 10.3247 54.1394 9.29462 54.4216 7.13807C55.1569 2.18582 59.8478 2.82086 62.1013 3.75741V7.13807H70.7012L71.0201 5.16791C72.1837 4.19828 74.9762 2.84079 76.8379 5.16791C78.6996 7.49503 78.5556 9.73903 78.2508 10.5701C78.2508 10.9303 77.7355 11.6506 75.6744 11.6506C78.5969 20.4271 74.4566 24.4375 72.0212 25.3456H59.3183C57.1585 25.3823 50.5691 19.2688 49.947 17.475C49.0685 16.5964 49.5809 15.7666 49.947 15.4616C50.3741 15.2419 51.3664 14.9344 51.9187 15.4616Z" fill="#DDDBCC"/>
</svg>
